<?xml version="1.0" standalone="no"?>
<!DOCTYPE svg PUBLIC "-//W3C//DTD SVG 20010904//EN"
 "http://www.w3.org/TR/2001/REC-SVG-20010904/DTD/svg10.dtd">
<svg version="1.0" xmlns="http://www.w3.org/2000/svg"
 width="250.000000pt" height="250.000000pt" viewBox="0 0 250.000000 250.000000"
 preserveAspectRatio="xMidYMid meet">
<metadata>
Created by potrace 1.14, written by Peter Selinger 2001-2017
</metadata>
<g transform="translate(0.000000,250.000000) scale(0.100000,-0.100000)"
fill="#000000" stroke="none">
<path d="M0 1250 l0 -1250 1250 0 1250 0 0 1250 0 1250 -1250 0 -1250 0 0
-1250z m1258 960 c17 -11 48 -45 67 -75 20 -30 47 -63 61 -72 35 -23 112 -22
254 1 258 41 392 -11 481 -185 52 -103 61 -174 63 -454 1 -215 -1 -255 -16
-287 -28 -62 -161 -142 -234 -140 -49 2 -122 48 -128 82 -21 107 -11 98 -136
129 -96 24 -177 73 -211 127 -44 71 -111 79 -212 26 -45 -23 -64 -27 -142 -27
-86 0 -93 2 -156 38 -108 61 -114 58 -222 -110 -36 -56 -77 -109 -91 -118 -38
-25 -257 -18 -303 10 -44 26 -67 76 -60 131 7 63 26 86 109 129 40 21 81 44
90 53 16 14 16 16 -8 34 -39 31 -65 93 -65 154 0 98 55 161 167 191 80 20 101
38 184 151 89 119 133 154 252 197 113 41 204 47 256 15z m-376 -1007 c14 -16
53 -71 86 -124 34 -52 73 -106 87 -119 l25 -23 0 44 c0 40 -28 171 -44 209 -5
13 5 16 68 16 85 1 78 8 125 -114 22 -56 71 -281 71 -326 0 -14 3 -26 8 -26
14 1 70 85 137 205 36 66 74 131 84 143 l17 24 63 -19 c58 -17 64 -21 76 -56
7 -21 20 -46 29 -56 18 -20 12 -46 -53 -207 -59 -149 -81 -242 -81 -349 0 -57
-4 -95 -12 -103 -9 -9 -80 -12 -260 -12 l-248 0 0 105 c0 324 -46 458 -213
624 l-75 73 35 59 c20 33 38 59 42 59 4 0 19 -12 33 -27z"/>
</g>
</svg>
